<svg width="12" height="13" viewBox="0 0 12 13" fill="none" xmlns="http://www.w3.org/2000/svg">
<path d="M4.90069 10.2086C5.95858 10.2086 6.94636 9.8677 7.74934 9.29958L10.77 12.2917C10.9102 12.4306 11.0951 12.5 11.2862 12.5C11.7005 12.5 12 12.1844 12 11.7804C12 11.591 11.9363 11.4143 11.7961 11.2754L8.79448 8.2959C9.42538 7.47528 9.80138 6.45897 9.80138 5.35429C9.80138 2.68411 7.59639 0.5 4.90069 0.5C2.19862 0.5 0 2.68411 0 5.35429C0 8.02446 2.19862 10.2086 4.90069 10.2086ZM4.90069 9.1607C2.79129 9.1607 1.05789 7.4374 1.05789 5.35429C1.05789 3.27117 2.79129 1.54787 4.90069 1.54787C7.00372 1.54787 8.74349 3.27117 8.74349 5.35429C8.74349 7.4374 7.00372 9.1607 4.90069 9.1607Z" fill="#191919" fill-opacity="0.5"/>
</svg>
