<svg width="32" height="32" viewBox="0 0 32 32" fill="none" xmlns="http://www.w3.org/2000/svg">
<g clip-path="url(#clip0_1_377)">
<path d="M29.6954 13.446C26.8856 13.5085 24.2632 12.6343 22.0154 11.0109V22.1874C22.0154 26.4332 19.393 30.1795 15.397 31.678C11.4634 33.1765 6.96781 32.0526 4.22053 28.8683C1.4108 25.6215 0.911298 21.0635 2.90932 17.3172C4.90735 13.6333 9.02828 11.5729 13.2741 12.1348V17.7543C11.3385 17.1299 9.21559 17.8167 8.02926 19.4401C6.90538 21.1259 6.90538 23.3113 8.0917 24.9347C9.27803 26.5581 11.4009 27.2449 13.2741 26.6205C15.2097 25.9961 16.5209 24.1854 16.5209 22.1874V0.333984H22.0154C22.0154 0.833491 22.0154 1.27056 22.1403 1.77007C22.5149 3.83053 23.7013 5.64124 25.512 6.76513C26.6983 7.57683 28.1968 8.0139 29.6954 8.0139V13.446Z" fill="#C8E855"/>
</g>
<defs>
<clipPath id="clip0_1_377">
<rect width="32" height="32" fill="white"/>
</clipPath>
</defs>
</svg>
