<svg width="1440" height="450" viewBox="0 0 1440 450" fill="none" xmlns="http://www.w3.org/2000/svg">
<mask id="mask0" style="mask-type:alpha" maskUnits="userSpaceOnUse" x="0" y="0" width="1440" height="450">
<rect width="1440" height="450" fill="#C4C4C4"/>
</mask>
<g mask="url(#mask0)">
<rect width="382.043" height="15.4448" transform="matrix(0.948906 0.315558 -0.547262 0.836962 1113.76 58.3445)" fill="#274C82"/>
<rect width="382.043" height="15.4448" transform="matrix(0.948906 0.315558 -0.547262 0.836962 -196.235 51.2129)" fill="#C15050"/>
<rect width="382.043" height="15.4448" transform="matrix(0.948906 0.315558 -0.547262 0.836962 1093.76 186.712)" fill="#5584AA"/>
<rect width="382.043" height="15.4448" transform="matrix(0.948906 0.315558 -0.547262 0.836962 1144.76 322.211)" fill="#274C82"/>
<rect width="382.043" height="15.4448" transform="matrix(0.948906 0.315558 -0.547262 0.836962 214.765 293.685)" fill="#F4E25D"/>
<rect width="382.043" height="15.4448" transform="matrix(0.948906 0.315558 -0.547262 0.836962 944.765 343.606)" fill="#C15050"/>
<rect width="382.043" height="15.4448" transform="matrix(0.948906 0.315558 -0.547262 0.836962 61.7646 -22.2419)" fill="#F4E25D"/>
<rect width="382.043" height="15.4448" transform="matrix(0.948906 0.315558 -0.547262 0.836962 194.765 379.264)" fill="#F4E25D"/>
<rect width="382.043" height="15.4448" transform="matrix(0.948906 0.315558 -0.547262 0.836962 -175.235 300.817)" fill="#C15050"/>
<rect width="382.043" height="15.4448" transform="matrix(0.948906 0.315558 -0.547262 0.836962 494.765 337.188)" fill="#274C82"/>
<rect width="382.043" height="15.4448" transform="matrix(0.948906 0.315558 -0.547262 0.836962 554.765 -27.947)" fill="#274C82"/>
<rect width="382.043" height="15.4448" transform="matrix(0.948906 0.315558 -0.547262 0.836962 1104.76 264.446)" fill="#F4E25D"/>
<rect width="382.043" height="15.4448" transform="matrix(0.948906 0.315558 -0.547262 0.836962 214.765 -20.8154)" fill="#C15050"/>
<rect width="382.043" height="15.4448" transform="matrix(0.948906 0.315558 -0.547262 0.836962 -4.23535 163.891)" fill="#274C82"/>
<rect width="286.532" height="15.4448" transform="matrix(0.948906 0.315558 -0.547262 0.836962 1314.76 29.1052)" fill="#5584AA"/>
<rect width="286.532" height="15.4448" transform="matrix(0.948906 0.315558 -0.547262 0.836962 -35.2354 -13.6841)" fill="#5584AA"/>
<rect width="286.532" height="15.4448" transform="matrix(0.948906 0.315558 -0.547262 0.836962 704.765 357.869)" fill="#5584AA"/>
<rect width="286.532" height="15.4448" transform="matrix(0.948906 0.315558 -0.547262 0.836962 475.765 2.71851)" fill="#5584AA"/>
<rect width="286.532" height="15.4448" transform="matrix(0.948906 0.315558 -0.547262 0.836962 1194.76 385.682)" fill="#5584AA"/>
<rect width="286.532" height="15.4448" transform="matrix(0.948906 0.315558 -0.547262 0.836962 54.7646 64.7629)" fill="#5584AA"/>
<rect width="2266.81" height="15.4448" transform="matrix(0.948906 0.315558 -0.547262 0.836962 -175.235 -320.34)" fill="#F4E25D"/>
<rect width="2266.81" height="15.4448" transform="matrix(0.948906 0.315558 -0.547262 0.836962 -175.235 200.262)" fill="#274C82"/>
<rect width="191.022" height="15.4448" transform="matrix(0.948906 0.315558 -0.547262 0.836962 908 385.103)" fill="#274C82"/>
<rect width="191.022" height="15.4448" transform="matrix(0.948906 0.315558 -0.547262 0.836962 1055.76 -13.6841)" fill="#C15050"/>
<rect x="360" y="112.678" width="720" height="224.643" rx="15" fill="white"/>
<path d="M526.699 173.514H557.314V178.194H526.699V173.514ZM526.699 162.464H557.314V167.209H526.699V162.464ZM572.069 192.429H546.004V185.019H565.309V155.639H519.094V185.019H538.009V192.429H512.659V199.774H538.009V213.619H546.004V199.774H572.069V192.429ZM642.594 178.389V170.394H617.049C617.699 164.349 617.764 158.369 617.829 153.039H609.379C609.314 158.369 609.379 164.284 608.729 170.394H585.069V178.389H607.429C604.894 189.569 598.719 200.359 583.834 206.989C586.109 208.614 588.384 211.409 589.619 213.554C603.399 206.924 610.419 196.784 613.929 185.929C618.999 198.474 626.539 207.964 638.304 213.489C639.539 211.279 642.074 207.834 644.024 206.209C631.869 201.269 624.004 191.064 619.714 178.389H642.594ZM689.979 157.329L680.489 154.209C679.904 156.419 678.539 159.409 677.564 161.034C674.314 166.624 668.659 175.009 657.284 181.964L664.564 187.359C670.934 183.004 676.589 177.284 680.944 171.629H699.209C698.169 176.504 694.399 184.304 689.979 189.374C684.324 195.809 677.109 201.464 663.784 205.429L671.454 212.319C683.674 207.509 691.539 201.529 697.714 193.989C703.564 186.709 707.269 178.064 709.024 172.279C709.544 170.654 710.454 168.834 711.169 167.599L704.539 163.504C703.044 163.959 700.899 164.284 698.884 164.284H685.819C685.884 164.154 685.949 164.089 686.014 163.959C686.794 162.529 688.484 159.604 689.979 157.329ZM728.264 182.744L732.359 190.934C740.354 188.594 748.609 185.084 755.304 181.574V202.374C755.304 205.234 755.109 209.329 754.849 210.889H765.119C764.664 209.264 764.534 205.234 764.534 202.374V176.114C770.839 171.954 777.079 166.884 782.019 162.009L774.999 155.314C770.774 160.449 763.364 166.949 756.669 171.109C749.454 175.529 739.899 179.754 728.264 182.744ZM843.686 153.949L838.551 156.094C839.721 157.849 841.021 160.124 842.126 162.204L841.346 161.619C840.046 162.074 837.446 162.399 834.651 162.399H811.706C809.756 162.399 805.791 162.204 804.036 161.944V171.174C805.401 171.109 808.976 170.719 811.706 170.719H833.741C832.311 175.334 828.346 181.769 824.056 186.644C817.946 193.469 807.871 201.399 797.406 205.299L804.101 212.319C813.006 208.159 821.651 201.334 828.541 194.119C834.651 199.969 840.696 206.664 844.921 212.514L852.331 206.014C848.496 201.334 840.631 193.014 834.196 187.424C838.551 181.574 842.191 174.684 844.401 169.614C844.986 168.249 846.156 166.299 846.676 165.519L845.181 164.414L848.886 162.854C847.781 160.579 845.376 156.419 843.686 153.949ZM851.876 151.674L846.741 153.819C848.496 156.224 850.641 160.059 852.006 162.724L857.141 160.514C855.971 158.239 853.631 154.144 851.876 151.674ZM894.451 191.324H901.081L902.836 169.094L903.161 159.409H892.371L892.696 169.094L894.451 191.324ZM897.766 208.614C901.016 208.614 903.486 206.274 903.486 202.894C903.486 199.449 901.016 197.109 897.766 197.109C894.516 197.109 892.046 199.449 892.046 202.894C892.046 206.274 894.451 208.614 897.766 208.614ZM403.06 271.505C406.596 275.353 410.392 277.225 415.332 277.225C420.896 277.225 425.992 274.105 429.476 267.657L423.756 264.537C421.78 268.229 418.816 270.777 415.488 270.777C411.9 270.777 409.976 269.425 407.74 267.033C404.204 263.185 400.408 261.313 395.468 261.313C389.904 261.313 384.808 264.433 381.324 270.881L387.044 274.001C389.02 270.309 391.984 267.761 395.312 267.761C398.952 267.761 400.824 269.165 403.06 271.505ZM475.496 266.045V264.329H479.344C482.1 264.329 483.92 264.381 485.064 264.485V257.569C483.66 257.829 482.1 257.933 479.344 257.933H475.496V252.473C475.496 250.393 475.704 248.677 475.86 247.637H468.424C468.58 248.677 468.736 250.393 468.736 252.473V257.933H456.412V252.785C456.412 250.757 456.568 249.093 456.724 248.105H449.34C449.496 249.665 449.652 251.277 449.652 252.785V257.933H445.232C442.632 257.933 440.5 257.621 439.616 257.465V264.537C440.76 264.433 442.632 264.329 445.232 264.329H449.652V271.401C449.652 273.741 449.496 275.821 449.34 276.861H456.62C456.568 275.821 456.412 273.689 456.412 271.401V264.329H468.736V266.305C468.736 279.097 464.316 283.569 454.28 287.053L459.844 292.305C472.376 286.793 475.496 278.941 475.496 266.045ZM497.024 268.801L500.3 275.353C506.696 273.481 513.3 270.673 518.656 267.865V284.505C518.656 286.793 518.5 290.069 518.292 291.317H526.508C526.144 290.017 526.04 286.793 526.04 284.505V263.497C531.084 260.169 536.076 256.113 540.028 252.213L534.412 246.857C531.032 250.965 525.104 256.165 519.748 259.493C513.976 263.029 506.332 266.409 497.024 268.801ZM589.168 251.537L583.084 246.181C582.252 247.429 580.588 249.093 579.08 250.601C575.596 253.981 568.472 259.753 564.364 263.081C559.164 267.449 558.748 270.205 563.948 274.625C568.68 278.681 576.324 285.181 579.496 288.457C581.056 290.017 582.564 291.681 584.02 293.293L590.104 287.729C584.8 282.581 574.92 274.781 571.02 271.505C568.212 269.061 568.16 268.489 570.916 266.097C574.4 263.133 581.264 257.829 584.644 255.125C585.84 254.137 587.556 252.785 589.168 251.537ZM638.204 250.393L630.82 247.429C629.936 249.613 628.948 251.329 628.272 252.733C625.516 257.673 614.856 278.889 611.008 289.289L618.34 291.785C619.12 289.029 620.94 283.205 622.292 280.189C624.164 275.977 627.076 272.337 630.612 272.337C632.484 272.337 633.524 273.429 633.68 275.249C633.836 277.381 633.784 281.645 633.992 284.401C634.2 288.197 636.904 291.629 642.676 291.629C650.632 291.629 655.468 285.701 658.172 276.809L652.556 272.233C651.048 278.681 648.292 284.505 643.768 284.505C642.052 284.505 640.596 283.725 640.388 281.697C640.128 279.513 640.284 275.353 640.18 273.013C639.972 268.697 637.632 266.253 633.732 266.253C631.756 266.253 629.676 266.721 627.752 267.813C630.352 263.237 633.992 256.581 636.54 252.837C637.112 252.005 637.684 251.121 638.204 250.393ZM689.424 247.949L681.676 247.169C681.728 250.445 681.312 254.241 680.584 258.193C677.932 258.401 675.488 258.557 673.876 258.609C671.952 258.661 670.184 258.765 668.312 258.609L668.936 265.681C670.496 265.421 673.252 265.057 674.708 264.797C675.696 264.693 677.308 264.485 679.18 264.277C677.308 271.401 673.72 281.905 668.676 288.717L675.436 291.421C680.22 283.777 684.068 271.453 686.044 263.549C687.5 263.445 688.8 263.341 689.632 263.341C692.908 263.341 694.676 263.913 694.676 268.073C694.676 273.221 694 279.513 692.596 282.477C691.764 284.193 690.412 284.713 688.696 284.713C687.292 284.713 684.328 284.193 682.3 283.621L683.444 290.485C685.212 290.849 687.656 291.213 689.684 291.213C693.584 291.213 696.496 290.069 698.212 286.429C700.448 281.905 701.176 273.481 701.176 267.345C701.176 259.857 697.276 257.413 691.764 257.413C690.672 257.413 689.112 257.517 687.396 257.621C687.76 255.749 688.124 253.825 688.488 252.265C688.748 250.965 689.112 249.301 689.424 247.949ZM707.312 252.837L701.124 255.489C704.816 260.065 708.508 269.477 709.86 275.249L716.464 272.181C714.904 267.241 710.536 257.309 707.312 252.837ZM739.968 247.169L738.304 253.409C742.36 254.449 753.956 256.893 759.208 257.569L760.768 251.225C756.244 250.705 744.908 248.729 739.968 247.169ZM740.28 257.621L733.312 256.633C732.948 263.081 731.752 273.273 730.712 278.369L736.692 279.877C737.16 278.837 737.68 278.005 738.616 276.861C741.892 272.909 747.196 270.725 753.072 270.725C757.596 270.725 760.82 273.221 760.82 276.601C760.82 283.205 752.552 287.001 736.952 284.869L738.928 291.681C760.56 293.501 768.048 286.221 768.048 276.757C768.048 270.465 762.744 264.849 753.644 264.849C748.184 264.849 743.036 266.357 738.304 269.789C738.668 266.825 739.604 260.481 740.28 257.621ZM828.004 270.725C828.004 259.389 819.892 250.445 806.996 250.445C793.528 250.445 783.128 260.689 783.128 272.701C783.128 281.489 787.912 287.833 793.684 287.833C799.352 287.833 803.824 281.385 806.944 270.881C808.452 265.993 809.336 261.209 810.064 256.789C817.084 257.985 820.984 263.341 820.984 270.517C820.984 278.109 815.784 282.893 809.128 284.453C807.724 284.765 806.268 285.077 804.292 285.285L808.192 291.473C821.296 289.445 828.004 281.697 828.004 270.725ZM789.784 272.025C789.784 266.305 794.412 258.713 802.992 256.945C802.42 261.261 801.432 265.681 800.236 269.529C798.104 276.549 796.076 279.825 793.892 279.825C791.864 279.825 789.784 277.277 789.784 272.025ZM862.116 257.829C861.024 255.749 859.776 253.409 858.528 251.537L853.952 254.033L854.42 254.813H850.208V245.037H844.54V254.813H838.924V260.533H844.54V269.217C842.148 269.997 840.016 270.725 838.248 271.297L839.808 277.121L844.54 275.353V287.001C844.54 287.677 844.28 287.885 843.656 287.885C843.032 287.937 841.264 287.937 839.392 287.833C840.12 289.497 840.796 292.045 840.952 293.553C844.332 293.605 846.568 293.397 848.128 292.409C849.688 291.421 850.208 289.861 850.208 287.001V273.169C851.924 272.545 853.64 271.921 855.304 271.245L854.16 265.785L850.208 267.241V260.533H854.524V255.021C856.344 258.141 858.216 262.093 859.048 264.693L862.116 262.821V268.125V269.685L862.012 269.477C858.424 271.921 854.732 274.365 852.288 275.821L855.46 281.021C857.332 279.565 859.464 277.901 861.492 276.237C860.504 281.385 857.956 285.753 851.82 289.029C853.12 289.965 855.252 292.045 856.188 293.345C866.432 287.677 867.784 278.577 867.784 268.177V245.557H862.116V257.829ZM878.184 287.521C877.092 287.521 876.936 287.157 876.936 284.765V272.961C879.64 275.613 882.344 278.629 883.8 280.709L887.752 276.341C885.828 273.845 881.824 269.997 878.444 267.189L876.936 268.645V262.821L880.264 264.693C882.188 261.937 884.528 257.569 886.66 253.721L881.148 250.913C880.212 253.877 878.496 257.725 876.936 260.741V245.557H871.112V284.713C871.112 291.213 872.412 293.033 877.092 293.033H881.616C885.672 293.033 887.128 290.277 887.7 283.205C886.088 282.841 883.852 281.801 882.5 280.761C882.344 286.013 882.136 287.521 881.096 287.521H878.184ZM944.068 254.397C943.236 251.953 940.948 248.365 938.868 245.609L934.188 248.053C936.216 250.809 938.244 254.709 939.076 257.101L944.068 254.397ZM912.868 253.669C912.504 251.381 911.464 247.741 910.32 245.037L905.224 246.181C906.264 249.041 907.2 252.785 907.408 255.125L912.868 253.669ZM904.444 254.657C903.976 252.317 902.468 248.781 900.96 246.129L895.916 247.741C897.32 250.497 898.724 254.189 899.088 256.477L904.444 254.657ZM902.728 268.905H907.356V271.869H902.728V268.905ZM902.728 261.625H907.356V264.641H902.728V261.625ZM916.924 264.641H912.504V261.625H916.924V264.641ZM916.924 271.869H912.504V268.905H916.924V271.869ZM923.632 284.973V279.513H912.868V276.445H922.228V257.101H918.848C920.564 254.553 922.8 250.549 924.672 246.857L918.276 245.141C917.392 248.417 915.52 252.733 913.908 255.541L918.64 257.101H897.736V276.445H906.992V279.513H895.916V284.973H906.992V293.501H912.868V284.973H923.632ZM938.712 264.745C937.724 267.917 936.32 270.985 934.656 273.897C934.188 271.141 933.824 267.969 933.512 264.589L944.692 263.185L944.068 257.517L933.096 258.869C932.836 254.553 932.68 249.977 932.628 245.193H926.752C926.908 250.289 927.064 255.073 927.324 259.545L922.696 260.117L923.32 265.837L927.792 265.265C928.26 271.141 928.988 276.237 929.976 280.449C926.7 284.193 922.852 287.261 918.484 289.237C920.044 290.329 921.916 292.149 922.956 293.553C926.18 291.785 929.196 289.445 931.9 286.637C933.668 290.849 936.06 293.241 939.18 293.345C941.364 293.449 943.964 291.421 945.316 282.685C944.328 282.113 941.884 280.449 940.896 279.149C940.584 283.621 940.064 286.013 939.18 286.013C938.088 285.909 937.1 284.245 936.268 281.385C939.336 277.121 941.78 272.337 943.392 267.397L938.712 264.745ZM1000.12 254.969C998.98 252.525 996.38 248.833 994.3 246.129L989.672 248.677C991.648 251.641 994.092 255.489 995.08 257.933L1000.12 254.969ZM1000.96 265.525V259.389H987.228V258.297V245.089H981.092V258.297V259.389H970.536V265.525H980.728C979.896 273.117 977.244 281.645 969.236 288.873V244.933H963.1V259.181C961.748 256.789 959.824 253.825 958.16 251.589L953.324 254.397C955.404 257.517 957.952 261.833 958.94 264.485L963.1 261.937V269.321C959.356 272.545 955.508 275.561 953.012 277.381L956.132 282.685C958.316 280.917 960.708 278.785 963.1 276.653V293.449H969.236V290.069C970.796 291.109 972.408 292.409 973.448 293.501C979.844 287.937 983.432 281.385 985.252 274.781C988.112 282.633 992.116 289.185 997.94 293.397C998.928 291.681 1000.96 289.341 1002.41 288.197C995.236 283.777 990.556 275.249 988.06 265.525H1000.96ZM1032.26 271.505C1035.8 275.353 1039.59 277.225 1044.53 277.225C1050.1 277.225 1055.19 274.105 1058.68 267.657L1052.96 264.537C1050.98 268.229 1048.02 270.777 1044.69 270.777C1041.1 270.777 1039.18 269.425 1036.94 267.033C1033.4 263.185 1029.61 261.313 1024.67 261.313C1019.1 261.313 1014.01 264.433 1010.52 270.881L1016.24 274.001C1018.22 270.309 1021.18 267.761 1024.51 267.761C1028.15 267.761 1030.02 269.165 1032.26 271.505Z" fill="#303030"/>
</g>
</svg>
