<svg xmlns="http://www.w3.org/2000/svg" viewBox="0 0 328.01 61.96"><defs><style>.cls-1,.cls-2{fill:#519965;}.cls-2{stroke:#fff;stroke-miterlimit:10;stroke-width:0.75px;}.cls-3{fill:#fff;}</style></defs><g id="レイヤー_2" data-name="レイヤー 2"><g id="レイヤー_1-2" data-name="レイヤー 1"><path class="cls-1" d="M43.07,36.56,7.73,54.79a3.5,3.5,0,0,1-5.06-2.48L0,33.49A3.22,3.22,0,0,1,3.91,30Z"/><path class="cls-1" d="M42.1,38.6,8.6,16a3.16,3.16,0,0,1,0-5.37L25.16.49a3.49,3.49,0,0,1,5.08,1.87Z"/><path class="cls-2" d="M178.89,10.43s-99,0-147,18.6a2.33,2.33,0,0,0-1.67,2.7l7.61,27.94a3.12,3.12,0,0,0,3.69,1.84A770.81,770.81,0,0,1,178.89,48.69,770.84,770.84,0,0,1,316.27,61.51,3.12,3.12,0,0,0,320,59.67l7.61-27.94A2.33,2.33,0,0,0,325.9,29C277.86,10.43,178.89,10.43,178.89,10.43Z"/><path class="cls-3" d="M56.44,36.14,56,33.8c-.14-.74.29-1.25,1.22-1.42s1.53.13,1.67.87l.45,2.35,1.93-.37c.69-.13,1.17.27,1.33,1.12s-.13,1.42-.82,1.56l-1.93.36A13.58,13.58,0,0,1,60,42.76c-.43,3.37-3.29,6.4-4.76,6.68a1.56,1.56,0,0,1-1.76-1.3c-.12-.64,0-.87.81-1.48a6,6,0,0,0,2.84-5.73A12.54,12.54,0,0,0,57,38.82l-4.45.85L53,42.49c.14.75-.3,1.25-1.24,1.43s-1.51-.13-1.66-.88l-.53-2.82-1.85.35c-.69.13-1.15-.27-1.32-1.14s.12-1.41.81-1.54l1.85-.35-.45-2.34c-.14-.74.32-1.25,1.22-1.43s1.53.14,1.67.88L52,37Z"/><path class="cls-3" d="M72.65,38.47c-1.83,1.84-3.83,3.36-4.72,3.5a1.53,1.53,0,0,1-1.73-1.36c-.14-.87.21-1.09,1.88-2.21a20.45,20.45,0,0,0,6.52-7.86c.48-1.15.61-1.47,1.33-1.58a1.66,1.66,0,0,1,1.9,1.18c.19,1.2-1.75,4.19-2.58,5.25l1.42,9c.13.76-.34,1.28-1.31,1.43s-1.58-.19-1.7-1Z"/><path class="cls-3" d="M91.25,28.2c.09.7-.28,1.36-2.16,4-.74,1-1.33,1.79-1.77,2.32-.66.8-.68.82-.66,1s.13.24,1,.81c1.16.81,2,1.42,2.7,2s1.25,1.06,1.9,1.58c.89.7,1.31,1.27,1.38,1.77a1.68,1.68,0,0,1-1.49,1.83,1.34,1.34,0,0,1-1.21-.42,44,44,0,0,0-6.41-5.42c-.9-.66-1.18-1-1.27-1.65a2,2,0,0,1,.67-1.69,37.56,37.56,0,0,0,4-5.92c.63-1.17.82-1.38,1.46-1.46A1.6,1.6,0,0,1,91.25,28.2Z"/><path class="cls-3" d="M105.64,32.66c2-.2,2.33,1.15,2.71,2.78.56,2.41.76,2.81,1.46,2.74.94-.1,1.7-1.17,2.13-3,.2-.8.48-1.08,1.18-1.15a1.4,1.4,0,0,1,1.65,1.1c.1,1-1,5.5-4.89,5.9-2.94.29-3.59-2.08-4.12-4.51-.24-1.08-.37-1.25-.8-1.21-.59.06-1.39.81-2.2,2.1a18.24,18.24,0,0,0-1.65,3.76c-.29.79-.52,1-1.11,1.08a1.46,1.46,0,0,1-1.75-1.15,8.44,8.44,0,0,1,.62-2.83c1-3.27,2.83-8.44,3.95-11.57.42-1.17.67-1.45,1.4-1.52A1.49,1.49,0,0,1,106,26.32c0,.36,0,.4-.88,2.78-.6,1.61-1.17,3-1.91,4.85A3.63,3.63,0,0,1,105.64,32.66Z"/><path class="cls-3" d="M119.11,26.19a1.35,1.35,0,0,1,1.35-1.26,1,1,0,0,1,1.23.85,31,31,0,0,0,1.43,3.79,17.72,17.72,0,0,1,4.16-1.93A1.31,1.31,0,0,1,128.53,29c.06.79-.17.9-2.17,1.73a24.08,24.08,0,0,0-4.29,2.45c-.93.73-1.28,1.33-1.23,2.07.08,1,.85,1.38,2.88,1.23a25.79,25.79,0,0,0,3.14-.45,10.48,10.48,0,0,1,1.32-.27,1.16,1.16,0,0,1,1.2,1.23,1.19,1.19,0,0,1-.93,1.35,29.14,29.14,0,0,1-3.93.55,13.16,13.16,0,0,1-3.16,0,3.38,3.38,0,0,1-3.06-3.26c-.11-1.55.46-2.68,2-4A5.93,5.93,0,0,1,121,31,23.3,23.3,0,0,1,119.11,26.19Z"/><path class="cls-3" d="M134.31,25.88l-.1-2.15c0-.65.4-1,1.23-1.07s1.28.3,1.31.95l.1,2.15c.33,0,1.07-.05,1.12,1.16s-.68,1.25-1,1.26l.08,1.71a.91.91,0,0,1,.46-.14c.92-.05,1.25,1.21,1.26,1.48,0,.59-.55,1-1.59,1.55l.2,4.51c.1,2.15-1.2,2.21-2.53,2.27-1.05,0-1.88.08-1.94-1.27,0-.74.3-1.24.83-1.27.16,0,.47,0,.69,0s.39-.15.37-.62l-.11-2.32a2.64,2.64,0,0,1-1.09.35c-.65,0-1.13-.56-1.17-1.45,0-.68.23-1,1.16-1.31a6.63,6.63,0,0,0,1-.44l-.13-3-1.21.05c-.62,0-1-.39-1-1.17s.3-1.22.92-1.25Zm6.41,2.58a1.4,1.4,0,0,1-1.11.65c-.45,0-.64-.17-.9-.94a14.84,14.84,0,0,0-.56-1.6c-.3-.64-.32-.71-.33-.92a1.26,1.26,0,0,1,1.2-1.14c.4,0,.66.17.91.64a15.2,15.2,0,0,1,.73,2l-.17-3.57c0-.62.39-1,1.15-1s1.21.27,1.23.89l.3,6.49c.19,4.12-.26,6.13-1.82,8.13-.77,1-1.17,1.3-1.73,1.33A1.46,1.46,0,0,1,138.08,38c0-.41.1-.6.83-1.25a5.5,5.5,0,0,0,1.69-3.2c-.55.6-.88.81-1.24.83A1.43,1.43,0,0,1,138,33.07c0-.43.11-.6.95-1.24a8.66,8.66,0,0,0,1.83-1.91ZM146,26.7a7.52,7.52,0,0,0,.54-1.34c.31-1.1.43-1.23,1-1.26a1.43,1.43,0,0,1,1.51,1.1,6.71,6.71,0,0,1-.84,2.52c-.39.72-.74,1-1.19,1.05a1.44,1.44,0,0,1-1-.41l.06,1.34a1.06,1.06,0,0,1,.69-.34c.36,0,.64.17,1.32.84,1,1,1.37,1.55,1.39,2a1.53,1.53,0,0,1-1.34,1.42c-.33,0-.5-.11-.77-.49s-.82-1-1.2-1.49l.21,4.61c0,.18.12.24.37.23s.34-.12.34-.43c.08-1.12.23-1.38.93-1.42s1.41.36,1.44.93a8.51,8.51,0,0,1-.23,1.73c-.39,1.45-1.56,1.5-2.84,1.56s-2.3.1-2.36-1.41l-.64-14c0-.64.39-1,1.15-1s1.22.29,1.25.92Z"/><path class="cls-3" d="M153.78,23a4.18,4.18,0,0,1,.66,1.47c0,.53-.73,1.08-1.43,1.09-.49,0-.6-.17-1.08-1.12a2.88,2.88,0,0,1-.57-1.26c0-.52.69-1,1.4-1.05C153.19,22.07,153.34,22.2,153.78,23Zm3.28,2.66c.45-.91.73-1.49,1.07-2.27.52-1.24.61-1.35,1.19-1.36.75,0,1.39.45,1.4,1a7.76,7.76,0,0,1-1.11,2.69c.69.26.79.73.8,1.63a.63.63,0,0,1,.54-.46l1-.21c-.05-1.09-.18-2.38-.19-3.27,0-1.52.6-1.53,1.2-1.54.89,0,1.16.19,1.23,1.41s.21,2.6.23,2.93l2.34-.45.34,0c.71,0,1.1.48,1.11,1.36,0,.65-.33,1-1.1,1.14l-2.49.45c.09,1,.15,1.54.27,2.24.17-.37.4-1,.54-1.24.24-.58.48-.76.95-.77a1.2,1.2,0,0,1,1.29,1.06c0,.83-1,2.91-1.84,4.33a3.2,3.2,0,0,0,.56,1.1c.07,0,.19-.37.29-.77.14-.56.3-.71.73-.71.69,0,1.11.29,1.12.79a8.34,8.34,0,0,1-.67,2.76,1.57,1.57,0,0,1-1.44,1.14c-.93,0-1.6-.57-2.31-2.08a10.28,10.28,0,0,1-2.75,2.16,2.24,2.24,0,0,1-.85.19,1.26,1.26,0,0,1-1.14-1.33c0-.42.26-.77.94-1.21a11.41,11.41,0,0,0,2.78-2.38,24.65,24.65,0,0,1-.94-4.82l-.61.11-.22,0a1,1,0,0,1-.93-.52l0,2.71c0,1.32-.35,1.7-1.67,1.72l-1.48,0v.76l2.58,0c.58,0,.91.4.93,1.13s-.31,1.12-.89,1.13l-2.58,0,0,1.9c0,.58-.4.91-1.1.92s-1.13-.31-1.14-.89l0-1.89-2.85,0c-.58,0-.91-.4-.92-1.11s.31-1.14.89-1.15l2.85,0v-.76l-1.48,0c-1.32,0-1.71-.35-1.73-1.67l-.06-4.14c0-1.32.35-1.7,1.67-1.72ZM155,28.48l0-.88h-.61c-.38,0-.38.09-.37.89Zm0,1.81h-1v.56c0,.33.08.4.38.39h.62Zm1.73-7.44a4,4,0,0,1,.42,1.37c0,.58-.58,1-1.36,1.05a.63.63,0,0,1-.69-.5c-.28-.84-.36-1-.47-1.31a1.51,1.51,0,0,1-.14-.59c0-.49.6-.93,1.34-.94C156.33,21.92,156.48,22.08,156.76,22.85Zm.49,5.6,1,0c0-.79,0-.88-.41-.88h-.62Zm0,1.8,0,1h.61c.33,0,.4-.08.39-.4v-.56Zm9.48-7.64c.93,1.21,1,1.43,1,1.74a1.32,1.32,0,0,1-1.34,1.12c-.38,0-.58-.14-.84-.55-1-1.36-1-1.45-1-1.7a1.28,1.28,0,0,1,1.25-1.12A1,1,0,0,1,166.75,22.61Z"/><path class="cls-3" d="M176.79,32.39c0,.67-.54,1.06-1.31,1s-1.32-.41-1.35-1.08l-.25-7.6c0-.27,0-1.5,1.66-1.49,1.08,0,1.69.58,1.65,1.52Zm.31,3.36a1.66,1.66,0,1,1-1.65-1.68A1.66,1.66,0,0,1,177.1,35.75Z"/><path class="cls-3" d="M201.17,35.44a12.23,12.23,0,0,0,5.39,2.88c1.28.27,1.65.61,1.64,1.47a1.79,1.79,0,0,1-1.76,2,13.36,13.36,0,0,1-8.74-5.46c-2.19,3.62-7.24,5.2-9.24,5.18-1,0-1.57-.74-1.56-1.9A1.44,1.44,0,0,1,188.16,38c.45-.09.9-.16,1.26-.22a8.46,8.46,0,0,0,4.66-2.45l-6.43-.09c-.78,0-1.2-.56-1.18-1.51s.44-1.51,1.23-1.5l1.52,0,0-3.25c0-1.68.58-2.22,2.27-2.2l4.52.07c0-.81,0-1.8,1.74-1.78s1.72,1,1.7,1.83l4.34.06c1.69,0,2.22.58,2.2,2.27L206,32.5l1.61,0c.79,0,1.21.54,1.19,1.53s-.45,1.49-1.23,1.48Zm-9.25-14.18c0-.76,0-1.78,1.75-1.75s1.72,1,1.71,1.8l4.72.07c0-.69,0-1.71,1.75-1.68s1.72,1,1.71,1.73l4.12.06c.79,0,1.23.56,1.22,1.56s-.48,1.54-1.26,1.52l-4.13-.06c0,1.09,0,2-1.76,2s-1.72-1-1.7-2l-4.72-.07c0,1,0,2-1.76,1.95s-1.72-1-1.7-2l-4-.06c-.81,0-1.23-.56-1.21-1.55s.45-1.54,1.25-1.53Zm3.77,11.08a11.36,11.36,0,0,0,.3-2.65l-2.82,0c-.41,0-.53.11-.53.51l0,2.14Zm3.74-2.6a13.07,13.07,0,0,1-.25,2.66l3.41.05,0-2.14c0-.4-.11-.52-.51-.53Z"/><path class="cls-3" d="M212.38,35.92c.09-1.58.51-2,2.1-1.88l3.29.18c1.59.09,2,.52,1.88,2.1l-.19,3.51c-.08,1.58-.51,2-2.1,1.88l-3.29-.18c-1.58-.09-2-.51-1.88-2.1Zm1.21-9c-.74,0-1.11-.56-1.06-1.51s.48-1.4,1.21-1.36l5.85.32c.74,0,1.11.56,1.06,1.48s-.48,1.43-1.21,1.39Zm.17,6.47c-.64,0-1-.53-.95-1.36s.42-1.26,1.09-1.22l4.83.26c.66,0,1,.53,1,1.33s-.43,1.29-1.09,1.25Zm.17-3.2c-.66,0-1-.53-1-1.38s.45-1.29,1.11-1.25l4.84.26c.66,0,1,.53,1,1.36s-.45,1.31-1.12,1.27Zm.46-6.74c-.71,0-1.1-.59-1-1.49s.5-1.42,1.21-1.38l4.62.25c.73,0,1.11.59,1.06,1.51s-.48,1.4-1.22,1.36Zm1.21,13.17c-.33,0-.38,0-.4.36l-.08,1.49c0,.33,0,.38.36.4l.78,0c.33,0,.38,0,.4-.35l.08-1.5c0-.33,0-.38-.36-.4Zm17.23-5.9c.9.05,1.71.1,1.63,1.59-.06.95-.51,1.44-1.27,1.4l-12-.65c-.75,0-1.15-.59-1.1-1.56s.51-1.44,1.26-1.4l1.4.07a16.39,16.39,0,0,0,.87-2l-1.42-.07c-.74,0-1.13-.59-1.08-1.51s.5-1.42,1.24-1.38l2.27.12c.11-.35.23-.75.35-1.24L222.23,24c-.76,0-1.16-.61-1.1-1.56s.5-1.47,1.26-1.43l10.82.59c.76.05,1.16.59,1.11,1.56s-.51,1.47-1.27,1.43l-4.71-.26a11.87,11.87,0,0,1-.35,1.24l2.91.16c1.7.09,2.17.62,2.08,2.32Zm-11.51,5.45c.1-1.7.65-2.19,2.35-2.1l7,.38c1.71.09,2.2.64,2.11,2.35l-.19,3.41c-.09,1.7-.64,2.2-2.34,2.1l-7-.38c-1.7-.09-2.19-.64-2.1-2.34Zm3.81.85c-.41,0-.51.07-.53.5l0,1c0,.43.06.52.47.55l3.71.2c.43,0,.53-.07.55-.49l.06-1c0-.43-.07-.53-.5-.55Zm4.36-6.48.09-1.49c0-.43-.07-.53-.5-.55l-2-.11c-.25.65-.5,1.33-.8,2Z"/><path class="cls-3" d="M246.34,26.21c.07-.54.16-1.24.25-1.92.1-1.07.25-2.31,2.18-2.13,1.28.12,1.75.64,1.64,1.82,0,.4-.15,1.32-.34,2.59l6.06.57c2,.19,2.79,1,2.65,2.45A107.67,107.67,0,0,1,257,40.85c-.75,3.12-1.6,3.73-4.76,3.43-3-.28-4.08-.43-3.9-2.3.11-1.13.66-1.7,1.56-1.61.63.06,1.56.31,2.34.39s1.09-.14,1.44-1.61C254.2,37,254.82,33,255,31.08c0-.37-.21-.61-.63-.65L249.53,30a21.83,21.83,0,0,1-2.07,6.26c-2.19,4.32-7,7.19-8.86,7A2.06,2.06,0,0,1,236.91,41c.08-.8.65-1.08,2.63-2.11,4.74-2.43,5.74-7,6.26-9.24l-5.64-.54c-.9-.08-1.31-.74-1.21-1.85s.66-1.65,1.53-1.57Z"/><path class="cls-3" d="M271.46,33.65,274,34c.77.1,1.12.7,1,1.67s-.62,1.44-1.4,1.34l-2.51-.34-.23,1.69,3,.4c.77.11,1.15.73,1,1.69s-.66,1.5-1.44,1.39l-3-.4-.55,4.14c-.12.85-.79,1.23-1.85,1.09s-1.61-.69-1.49-1.54l.55-4.14-3.66-.49c-.8-.11-1.15-.73-1-1.72s.63-1.47,1.43-1.36l3.67.49.23-1.69-3.22-.43c-.78-.11-1.13-.71-1-1.67s.65-1.44,1.4-1.34l3.22.43,1-7.4c.11-.85.79-1.26,1.85-1.12s1.6.72,1.49,1.57Zm-3.85-5.73a8.74,8.74,0,0,1,.42,2.44,1.67,1.67,0,0,1-1.89,1.21c-.56-.08-.86-.4-1.06-1.22s-.48-1.76-.75-2.73a2.7,2.7,0,0,1-.11-1,1.74,1.74,0,0,1,2-1.14C267,25.56,267.09,25.76,267.61,27.92Zm9.11.1A10.72,10.72,0,0,1,275,31.61c-.51.77-.85,1-1.37.94-.82-.11-1.56-.85-1.48-1.49,0-.28.1-.37.67-1.2A13.69,13.69,0,0,0,274,27.61c.34-.77.71-1,1.42-.92S276.81,27.36,276.72,28Zm.45,0c.12-.85.77-1.24,1.82-1.1s1.59.7,1.47,1.54l-1.71,12.74c-.12.85-.77,1.24-1.83,1.1s-1.58-.69-1.46-1.54ZM282,27.5c.11-.85.76-1.24,1.84-1.09s1.61.69,1.5,1.54L283,45.11c-.35,2.63-1.08,3.23-3.57,2.9s-2.94-.76-2.75-2.12c.13-1,.63-1.47,1.36-1.38.16,0,1,.23,1.11.25.45.06.51,0,.61-.83Z"/><path class="cls-3" d="M299.57,47.26a36.81,36.81,0,0,0,3.77.9c1.07.19,2.05.27,3,.44,1.45.25,1.88.81,1.64,2.14-.17,1-.74,1.34-2,1.19-.87-.11-1.68-.18-2.7-.36s-6.66-1.17-9-3.3A9.7,9.7,0,0,1,292.58,46a17.13,17.13,0,0,1-2.67,2.9,1.84,1.84,0,0,1-1.5.44,2,2,0,0,1-1.67-2.12c.08-.47.29-.72,1.3-1.53,1.63-1.33,2.57-2.85,3.59-5.66.38-1.06.82-1.39,1.69-1.24,1.26.22,2,1,1.8,1.91a9.64,9.64,0,0,1-.75,2.12,7.73,7.73,0,0,0,2,2.93l1.25-7.15-4.06-.71c-.8-.14-1.14-.78-1-1.76s.71-1.46,1.51-1.32L305,36.69c.79.14,1.12.75.94,1.75s-.69,1.47-1.48,1.33L301,39.16l-.46,2.57,4.7.82c.77.14,1.1.75.93,1.7s-.69,1.45-1.46,1.31L300,44.74ZM298.5,30.87c.2-1.12.37-2.08,2.16-1.76s1.63,1.27,1.44,2.39l6.35,1.12c1.68.29,2.1.9,1.81,2.58l-.48,2.73c-.15.84-.84,1.2-1.89,1s-1.55-.76-1.4-1.6l.26-1.47c.07-.42,0-.53-.43-.6l-13-2.28c-.42-.07-.53,0-.61.42l-.25,1.48c-.15.81-.81,1.18-1.86,1s-1.56-.75-1.41-1.57l.48-2.73c.29-1.68.87-2.11,2.55-1.81Z"/></g></g></svg>