<svg width="100%" height="100%" preserveAspectRatio="none" id="footer-bars" data-name="footer-bars"  xmlns="http://www.w3.org/2000/svg" viewBox="0 0 1200 80"><defs><style>.cls-1{fill:#a5ced9;}.cls-2{fill:#f4e25d;}.cls-3{fill:#c15050;}.cls-4{fill:#519965;}.cls-5{fill:#e8b7c7;}</style></defs><polygon class="cls-1" points="143 22 151 22 151 30 151 30 143 22"/><rect class="cls-1" x="147" y="22" width="1055" height="8"/><polygon class="cls-1" points="151 22 151 30 143 30 143 30 151 22"/><polygon class="cls-2" points="774 8.91 768 8.91 768 17 768 17 774 8.91"/><rect class="cls-2" y="8.91" width="771.08" height="8" transform="translate(771.08 25.82) rotate(180)"/><polygon class="cls-2" points="768 9 768 16.91 774 16.91 774 16.91 768 9"/><rect class="cls-3" x="0.22" y="35" width="1048.8" height="8" transform="translate(1049.25 78) rotate(180)"/><polygon class="cls-3" points="1046 35 1046 43 1054 43 1054 43 1046 35"/><polygon class="cls-3" points="1046 43 1046 35 1054 35 1054 35 1046 43"/><polygon class="cls-4" points="224 48 231.36 48 231.36 56 231.36 56 224 48"/><rect class="cls-4" x="227.68" y="48" width="970.32" height="8"/><polygon class="cls-4" points="231.36 48 231.36 56 224 56 224 56 231.36 48"/><rect class="cls-5" x="-2.22" y="61.44" width="904.93" height="8" transform="translate(900.49 130.88) rotate(180)"/><polygon class="cls-5" points="900.1 61.44 900.1 69.44 907 69.44 907 69.44 900.1 61.44"/><polygon class="cls-5" points="900.1 69.44 900.1 61.44 907 61.44 907 61.44 900.1 69.44"/></svg>