<?xml version="1.0" encoding="utf-8"?>
<!-- Generator: Adobe Illustrator 25.3.1, SVG Export Plug-In . SVG Version: 6.00 Build 0)  -->
<svg version="1.1" width="100%" height="100%" preserveAspectRatio="none" id="background_himo" data-name="background_himo" xmlns="http://www.w3.org/2000/svg" xmlns:xlink="http://www.w3.org/1999/xlink" x="0px"
	 y="0px" viewBox="0 0 595.28 841.89" style="enable-background:new 0 0 595.28 841.89;" xml:space="preserve">
<style type="text/css">
	.st0{fill:#A2C9D3;}
	.st1{fill:#509462;}
	.st2{fill:#EBDB60;}
	.st3{fill:#E3B4C3;}
	.st4{fill:#B84E4E;}
	.st5{fill:#204480;}
	.st6{fill:#FFFFFF;}
</style>
<rect x="48.5" y="35.9" class="st0" width="5.67" height="623.62"/>
<rect x="66.36" y="144.01" class="st1" width="5.67" height="623.62"/>
<rect x="30.27" y="197.99" class="st2" width="5.67" height="623.62"/>
<rect x="540.88" y="36.01" transform="matrix(-1 -1.224647e-16 1.224647e-16 -1 1087.4349 695.6506)" class="st3" width="5.67" height="623.62"/>
<rect x="522.79" y="143.99" transform="matrix(-1 -1.224647e-16 1.224647e-16 -1 1051.2509 911.6089)" class="st4" width="5.67" height="623.62"/>
<rect x="558.87" y="197.96" transform="matrix(-1 -1.224647e-16 1.224647e-16 -1 1123.4009 1019.5335)" class="st5" width="5.67" height="623.62"/>
<polygon class="st6" points="69.2,149.68 66.36,144.01 72.03,144.01 "/>
<polygon class="st6" points="51.34,41.57 48.5,35.9 54.17,35.9 "/>
<polygon class="st6" points="33.11,203.66 30.27,197.99 35.94,197.99 "/>
<polygon class="st6" points="525.63,149.66 522.79,143.99 528.46,143.99 "/>
<polygon class="st6" points="543.72,41.68 540.88,36.01 546.55,36.01 "/>
<polygon class="st6" points="561.7,203.63 558.87,197.96 564.54,197.96 "/>
<polygon class="st6" points="51.34,653.86 48.5,659.53 54.17,659.53 "/>
<polygon class="st6" points="69.2,761.96 66.36,767.63 72.03,767.63 "/>
<polygon class="st6" points="33.11,815.94 30.27,821.61 35.94,821.61 "/>
<polygon class="st6" points="525.63,761.95 522.79,767.62 528.46,767.62 "/>
<polygon class="st6" points="561.7,815.91 558.87,821.58 564.54,821.58 "/>
<polygon class="st6" points="543.72,653.97 540.88,659.64 546.55,659.64 "/>
</svg>
