<?xml version="1.0" encoding="UTF-8"?><svg id="_レイヤー_1" xmlns="http://www.w3.org/2000/svg" width="100%" height="100%" viewBox="0 0 1440 180"><defs><style>.cls-1{fill:#ffe97b;}.cls-2{fill:none;}.cls-3{fill:#fff3b9;}.cls-4{fill:#eda93b;}</style></defs><circle class="cls-1" cx="191.77" cy="201.66" r="76.04"/><polygon class="cls-3" points="99.82 160.56 -15.19 58.34 -50.07 125.79 99.82 160.56"/><polygon class="cls-4" points="138.47 121.03 86.74 -23.89 23.73 18.5 138.47 121.03"/><polygon class="cls-3" points="193.74 103.08 231.71 -46.03 155.77 -46.03 193.74 103.08"/><polygon class="cls-4" points="251.31 120.53 358.75 10.38 292.99 -27.59 251.31 120.53"/><polygon class="cls-3" points="284.82 154.34 436.14 126.4 404.35 57.43 284.82 154.34"/><circle class="cls-1" cx="1255.58" cy="-15.22" r="76.04"/><polygon class="cls-3" points="1347.53 25.88 1462.54 128.1 1497.42 60.65 1347.53 25.88"/><polygon class="cls-4" points="1308.87 65.42 1360.61 210.33 1423.62 167.94 1308.87 65.42"/><polygon class="cls-3" points="1253.61 83.36 1215.64 232.47 1291.58 232.47 1253.61 83.36"/><polygon class="cls-4" points="1196.04 65.91 1088.59 176.06 1154.36 214.03 1196.04 65.91"/><polygon class="cls-3" points="1162.53 32.1 1011.21 60.04 1043 129.01 1162.53 32.1"/><rect class="cls-2" x="432.5" y="1.55" width="574.99" height="175.63"/></svg>